HIERARCHY
ROOT joint_Root
{
	OFFSET 0.0 0.0 0.0
	CHANNELS 6 Xposition Yposition Zposition Zrotation Xrotation Yrotation 
	JOINT Hips
	{
		OFFSET 4.5925 91.4895 -427.239
		CHANNELS 6 Xposition Yposition Zposition Zrotation Xrotation Yrotation 
		JOINT Spine
		{
			OFFSET 15.7357 0.0 0.0
			CHANNELS 6 Xposition Yposition Zposition Zrotation Xrotation Yrotation 
			JOINT Chest
			{
				OFFSET 8.98455 -0.406207 0.0
				CHANNELS 6 Xposition Yposition Zposition Zrotation Xrotation Yrotation 
				JOINT Neck
				{
					OFFSET 16.3773 0.0 0.0
					CHANNELS 6 Xposition Yposition Zposition Zrotation Xrotation Yrotation 
					JOINT Head
					{
						OFFSET 6.45672 0.0 0.0
						CHANNELS 6 Xposition Yposition Zposition Zrotation Xrotation Yrotation 
						End Site
						{
							OFFSET 0.0 0.0 0.0
						}
					}
				}
				JOINT Shoulder_L
				{
					OFFSET 12.9942 -0.242716 4.98039
					CHANNELS 6 Xposition Yposition Zposition Zrotation Xrotation Yrotation 
					JOINT UpperArm_L
					{
						OFFSET 5.34809 0.0 0.0
						CHANNELS 6 Xposition Yposition Zposition Zrotation Xrotation Yrotation 
						JOINT LowerArm_L
						{
							OFFSET 24.3286 1.87007e-05 0.0
							CHANNELS 6 Xposition Yposition Zposition Zrotation Xrotation Yrotation 
							JOINT Hand_L
							{
								OFFSET 22.2916 0.0 0.0
								CHANNELS 6 Xposition Yposition Zposition Zrotation Xrotation Yrotation 
								End Site
								{
									OFFSET 0.0 0.0 0.0
								}
							}
						}
					}
				}
				JOINT Shoulder_R
				{
					OFFSET 12.9945 -0.242716 -4.98039
					CHANNELS 6 Xposition Yposition Zposition Zrotation Xrotation Yrotation 
					JOINT UpperArm_R
					{
						OFFSET -5.34813 0.0 0.0
						CHANNELS 6 Xposition Yposition Zposition Zrotation Xrotation Yrotation 
						JOINT LowerArm_R
						{
							OFFSET -24.3289 0.000322201 0.0
							CHANNELS 6 Xposition Yposition Zposition Zrotation Xrotation Yrotation 
							JOINT Hand_R
							{
								OFFSET -22.2915 -0.000108084 0.0
								CHANNELS 6 Xposition Yposition Zposition Zrotation Xrotation Yrotation 
								End Site
								{
									OFFSET 0.0 0.0 0.0
								}
							}
						}
					}
				}
			}
		}
		JOINT UpperLeg_L
		{
			OFFSET -2.19248 -6.46944 0.0
			CHANNELS 6 Xposition Yposition Zposition Zrotation Xrotation Yrotation 
			JOINT LowerLeg_L
			{
				OFFSET 39.0811 0.0 -1.23785e-05
				CHANNELS 6 Xposition Yposition Zposition Zrotation Xrotation Yrotation 
				JOINT Foot_L
				{
					OFFSET 40.9854 0.0 -1.26872e-05
					CHANNELS 6 Xposition Yposition Zposition Zrotation Xrotation Yrotation 
					JOINT Toes_L
					{
						OFFSET 11.7543 0.0 0.0
						CHANNELS 6 Xposition Yposition Zposition Zrotation Xrotation Yrotation 
						End Site
						{
							OFFSET 0.0 0.0 0.0
						}
					}
				}
			}
		}
		JOINT UpperLeg_R
		{
			OFFSET -2.19251 6.46944 0.0
			CHANNELS 6 Xposition Yposition Zposition Zrotation Xrotation Yrotation 
			JOINT LowerLeg_R
			{
				OFFSET -39.0811 -0.00228153 -0.0401928
				CHANNELS 6 Xposition Yposition Zposition Zrotation Xrotation Yrotation 
				JOINT Foot_R
				{
					OFFSET -40.9854 0.0 0.0
					CHANNELS 6 Xposition Yposition Zposition Zrotation Xrotation Yrotation 
					JOINT Toes_R
					{
						OFFSET -11.7543 0.0 0.0
						CHANNELS 6 Xposition Yposition Zposition Zrotation Xrotation Yrotation 
						End Site
						{
							OFFSET 0.0 0.0 0.0
						}
					}
				}
			}
		}
	}
}
MOTION
Frames:	5
Frame Time:	0.0333333
0.000000 0.000000 0.000000 0.000000 0.000000 -0.000000 141.885000 89.544800 -150.641000 90.853500 -1.458960 -5.262410 15.735700 0.000005 -0.000001 120.205000 82.678200 -121.000000 8.984550 -0.406207 -0.000000 4.974040 7.372050 -1.910630 16.377300 -0.000001 -0.000001 -1.944860 -6.288790 0.691787 6.456720 -0.000001 -0.000000 -5.975920 -11.753700 0.487234 12.994200 -0.242716 4.980390 -87.348600 -6.479300 -67.686800 5.348090 -0.000007 -0.000001 -63.734800 33.741200 25.981700 24.328600 0.000019 0.000005 1.439970 0.253138 -80.037500 22.291600 -0.000001 0.000005 0.823461 5.537290 -8.119810 12.994500 -0.242716 -4.980390 89.778200 1.236030 -79.821800 -5.348130 -0.000001 -0.000004 -46.512900 38.102500 -46.823900 -24.328900 0.000322 -0.000009 -11.428800 5.473640 -115.260000 -22.291500 -0.000108 -0.000004 22.369400 5.578440 -10.130600 -2.192480 -6.469440 -0.000000 175.212000 -7.751720 -40.528800 39.081100 -0.000007 -0.000012 -0.019999 0.020291 44.590100 40.985400 -0.000006 -0.000013 -1.583360 1.457810 -64.658600 11.754300 -0.000000 0.000003 -0.008341 -0.090800 -20.274600 -2.192510 6.469440 -0.000001 172.195000 26.233900 -176.163000 -39.081100 -0.002282 -0.040193 -0.043781 0.098377 25.579600 -40.985400 0.000008 0.000006 7.868060 18.134700 -74.141900 -11.754300 -0.000006 -0.000006 -0.037756 -0.251039 -26.879000
0.000000 0.000000 0.000000 0.000000 0.000000 -0.000000 142.005000 87.990500 -146.620000 89.441000 -3.027730 -4.208820 15.735700 0.000005 -0.000001 119.994000 81.908300 -120.518000 8.984550 -0.406207 -0.000000 6.335860 8.073410 -1.496340 16.377300 -0.000001 -0.000001 -2.723620 -5.932560 0.336246 6.456720 -0.000001 -0.000000 -7.176130 -11.938500 0.247740 12.994200 -0.242716 4.980390 -88.129000 -4.429040 -67.070900 5.348090 -0.000007 -0.000001 -63.123000 27.591700 23.013200 24.328600 0.000019 0.000005 2.230940 0.526921 -76.729600 22.291600 -0.000001 0.000005 1.903150 5.533760 -7.965880 12.994500 -0.242716 -4.980390 89.582900 2.645510 -81.034000 -5.348130 -0.000001 -0.000004 -48.671200 39.046300 -42.150300 -24.328900 0.000322 -0.000009 -12.717000 4.472450 -109.063000 -22.291500 -0.000108 -0.000004 22.248200 5.578340 -10.122500 -2.192480 -6.469440 -0.000000 175.656000 -11.771900 -40.363100 39.081100 -0.000007 -0.000012 -0.019978 0.025344 38.250100 40.985400 -0.000006 -0.000013 -2.270790 2.446010 -66.344000 11.754300 -0.000000 0.000003 -0.008060 -0.088535 -20.182100 -2.192510 6.469440 -0.000001 172.214000 22.327400 -174.335000 -39.081100 -0.002282 -0.040193 -0.045637 0.087003 29.358200 -40.985400 0.000008 0.000006 8.096360 16.556300 -75.693800 -11.754300 -0.000006 -0.000006 -0.057837 -0.324677 -29.973700
0.000000 0.000000 0.000000 0.000000 0.000000 -0.000000 142.391000 86.532200 -141.875000 89.010400 -4.397220 -3.999390 15.735700 0.000005 -0.000001 118.418000 81.671000 -119.031000 8.984550 -0.406207 -0.000000 6.977990 7.905120 -1.707690 16.377300 -0.000001 -0.000001 -3.391420 -5.497940 0.878579 6.456720 -0.000001 -0.000000 -8.323970 -11.363500 -0.419068 12.994200 -0.242716 4.980390 -89.643500 -0.845221 -67.129100 5.348090 -0.000007 -0.000001 -62.833200 20.318800 20.683800 24.328600 0.000019 0.000005 4.567420 1.296780 -74.183300 22.291600 -0.000001 0.000005 4.425650 5.528600 -7.731060 12.994500 -0.242716 -4.980390 89.225300 5.369480 -81.776900 -5.348130 -0.000001 -0.000004 -51.117400 40.332900 -34.935200 -24.328900 0.000322 -0.000009 -13.769300 2.518120 -100.167000 -22.291500 -0.000108 -0.000004 22.563500 5.586600 -10.571900 -2.192480 -6.469440 -0.000000 173.390000 -16.350000 -42.472100 39.081100 -0.000007 -0.000012 0.179052 -0.215565 39.713600 40.985400 -0.000006 -0.000013 4.333950 -1.129710 -66.857100 11.754300 -0.000000 0.000003 -0.007081 -0.080369 -19.848700 -2.192510 6.469440 -0.000001 171.588000 18.755500 -173.318000 -39.081100 -0.002282 -0.040193 -0.023330 0.040483 33.332200 -40.985400 0.000008 0.000006 8.138020 14.844500 -75.494200 -11.754300 -0.000006 -0.000006 -0.101813 -0.449031 -35.323000
0.000000 0.000000 0.000000 0.000000 0.000000 -0.000000 143.021000 85.372900 -136.055000 89.180900 -4.822960 -4.290640 15.735700 0.000005 -0.000001 115.635000 82.197500 -116.682000 8.984550 -0.406207 -0.000000 6.399720 6.744060 -2.470250 16.377300 -0.000001 -0.000001 -3.589040 -5.459440 1.892630 6.456720 -0.000001 -0.000000 -7.362520 -10.350700 0.618914 12.994200 -0.242716 4.980390 -91.341800 3.189240 -67.170900 5.348090 -0.000007 -0.000001 -62.962900 14.743000 18.161000 24.328600 0.000019 0.000005 3.758980 1.016620 -74.892000 22.291600 -0.000001 0.000005 7.312590 5.530450 -7.817800 12.994500 -0.242716 -4.980390 88.741200 8.192100 -81.234500 -5.348130 -0.000001 -0.000004 -55.061100 41.659500 -24.972000 -24.328900 0.000322 -0.000009 -14.595900 -1.031170 -86.039500 -22.291500 -0.000108 -0.000004 22.108500 5.598520 -11.252600 -2.192480 -6.469440 -0.000000 172.030000 -19.767200 -43.988300 39.081100 -0.000007 -0.000012 0.061940 -0.060836 45.514100 40.985400 -0.000006 -0.000013 7.161610 -3.427380 -60.821700 11.754300 -0.000000 0.000003 -0.002905 -0.039531 -18.184400 -2.192510 6.469440 -0.000001 170.453000 16.001100 -173.212000 -39.081100 -0.002282 -0.040193 0.040965 -0.047899 38.192000 -40.985400 0.000008 0.000006 8.131490 13.700200 -70.704500 -11.754300 -0.000006 -0.000006 -0.224172 -0.683823 -46.073000
0.000000 0.000000 0.000000 0.000000 0.000000 -0.000000 143.727000 84.897900 -129.651000 88.919100 -4.055630 -3.462650 15.735700 0.000005 -0.000001 111.614000 82.734800 -112.921000 8.984550 -0.406207 -0.000000 5.825300 5.360920 -2.886750 16.377300 -0.000001 -0.000001 -2.807230 -5.476050 2.154630 6.456720 -0.000001 -0.000000 -5.482640 -10.461500 3.335490 12.994200 -0.242716 4.980390 -91.948300 4.376270 -65.972800 5.348090 -0.000007 -0.000001 -66.513300 15.817000 11.332500 24.328600 0.000019 0.000005 -2.044750 -0.508792 -76.010300 22.291600 -0.000001 0.000005 9.790280 5.526480 -7.637480 12.994500 -0.242716 -4.980390 88.312000 9.490510 -79.866600 -5.348130 -0.000001 -0.000004 -60.941000 41.306200 -13.598600 -24.328900 0.000322 -0.000009 -11.489000 -4.884340 -67.254900 -22.291500 -0.000108 -0.000004 21.330000 5.606040 -11.709400 -2.192480 -6.469440 -0.000000 173.673000 -19.110100 -41.282700 39.081100 -0.000007 -0.000012 -0.228324 0.181686 51.490200 40.985400 -0.000006 -0.000013 6.149750 -3.155580 -66.654300 11.754300 -0.000000 0.000003 0.000466 0.008249 -16.242500 -2.192510 6.469440 -0.000001 170.268000 14.560600 -174.777000 -39.081100 -0.002282 -0.040193 0.173053 -0.165006 45.819000 -40.985400 0.000008 0.000006 9.963410 12.546000 -57.123900 -11.754300 -0.000006 -0.000006 -0.522072 -1.015010 -64.210200
